<svg xmlns="http://www.w3.org/2000/svg" viewBox="0 0 247.18 246.95"><defs><style>.cls-1{fill:#7510f7;}</style></defs><title>Design</title><g id="Layer_2" data-name="Layer 2"><g id="Layer_1-2" data-name="Layer 1"><path class="cls-1" d="M245.22,204.92,176.49,136.2l-.15-.14L164,123.69,234.56,53.1c6.32-6.31,9.25-13.75,9.23-23.4-1-12.62-7.6-21.72-19.08-26.2a32.4,32.4,0,0,0-11.78-2.36c-7.58,0-14.52,3.09-20.62,9.18C168.77,33.81,145,57.51,121.43,81.12L108.05,67.74l-.61-.62L56.15,15.86,42.71,2.41C41.06.77,39.75,0,38.58,0s-2.53.79-4.22,2.47L3,33.87c-3.6,3.6-3.58,5.27.06,8.91Q35.21,75,67.39,107.15c.28.28,12.78,12.77,14,14L52.08,150.48,9.63,192.94c-.2.21-.42.41-.63.61a13.65,13.65,0,0,0-1.73,1.9A7.36,7.36,0,0,0,6,198.13c-.54,3.12-1,6.33-1.38,9.43l-.37,2.72-1.09,8C2.09,225.71,1,233.43.06,241a4.22,4.22,0,0,0,.61,3.19,3.3,3.3,0,0,0,2.58.89A8,8,0,0,0,4.41,245L11.92,244c10.74-1.5,21.85-3,32.79-4.44a10.59,10.59,0,0,0,6.7-3.22c8.31-8.43,16.83-16.92,25.06-25.14l8.76-8.75,36.09-36.1,2.63-2.62,14,14h0l8.51,8.52q29.48,29.49,59,58.94a5.16,5.16,0,0,0,3.46,1.81,5.46,5.46,0,0,0,3.66-1.94q16.42-16.38,32.79-32.79C247.83,209.69,247.8,207.51,245.22,204.92ZM200.78,11.24A21.68,21.68,0,0,1,213.53,7.3a23.93,23.93,0,0,1,17.27,7.09c8.12,8.45,9.43,21.59,3,29.91l-.94,1.21-1.08-1.08L211.54,24.21,200.62,13.29l-1.12-1.12ZM37.81,65,12.3,39.46l-1-1,1-1L30.19,19.66l7.57-7.57,1-1,1,1,5.25,5.25,6.76,6.77,1,1-1,1-7.51,7,5.63,5.66.43-.44,6.66-6.83,1-1,1,1,3.87,3.82,3.43,3.39,1,1-1,1-7.57,7,2,2.06L64,53.12l5.17-5.6,2-2.12.94-1,1,1,3.87,3.75,3.28,3.17,1,1-1,1L68.35,66l3,3,2.39,2.42,5.82-5.86,5.74-5.78,1-1,1,1,5.09,5,3.89,3.87,1,1-1,1-7.68,7-.06.06,2.5,2.53,2.32,2.36,7.09-7.1,1.36-1.36L115,87.52,87.69,114.85Zm6,168.61L8.15,238.49l-1.76.24L6.63,237l2.73-20,2.14-15.74.37-2.7,1.93,1.92,12.69,12.69,18.15,18.14,1.92,1.93Zm8-7.09-1,1-1-1-6.62-6.62-4.94-5-1-1-6.75-6.42-1-1-11.28-11.3-1-1,1-.95,69.23-69.24L191.37,20.42l1-1,1,1,23,23,8.4,8.39,1,1-1,1-69.24,69.24Zm183.21-16.83-25.76,25.7-1,1-.95-1-63.58-63.57h0l-.57-.58-1.5-1.49h0l-11.9-11.91,28.22-28.22,12,12L157,154.6l4.86,5.18,2.61-2.64,9-9.09,1-1,1,1,53,53,6.72,6.72,1,1Z"/></g></g></svg>