<svg xmlns="http://www.w3.org/2000/svg" xmlns:xlink="http://www.w3.org/1999/xlink" viewBox="0 0 278 347"><defs><style>.cls-1{opacity:0.75;isolation:isolate;}.cls-2{fill:#51331e;}.cls-3{fill:#664125;}.cls-4{fill:#754c28;}.cls-5{fill:#6651a1;}.cls-6{fill:#231f20;}.cls-7{fill:#474647;}.cls-8{fill:#333;}.cls-9{fill:#9f9ba0;}.cls-10{fill:none;stroke:#514d4e;stroke-miterlimit:10;stroke-width:0.2px;}.cls-11{fill:#7b2639;}.cls-12{fill:#ae8774;}.cls-13{fill:#262223;}.cls-14{fill:#c09680;}.cls-15{fill:#1d1616;}</style></defs><title>Mylogo</title><g id="Layer_2" data-name="Layer 2"><g id="Layer_1-2" data-name="Layer 1"><g id="me"><image class="cls-1" width="286" height="347" transform="scale(0.97 1)" xlink:href="../Illistrator/C8EA8F71.png"/><rect class="cls-2" x="164.6" y="206.81" width="13.4" height="5.7"/><path id="mainBench" class="cls-3" d="M187,206.11c-2.2-.5-15,1.2-15,1.2l2.9,64.5-14.7.9v-22.5L0,264.41v-11.7l160.2-13.2-1.7-31.7L0,219.41v-32l187-8.5Z"/><polyline class="cls-4" points="160.1 240.01 0 252.41 0 257.01 160.1 243.61"/><polygon id="benchtop" class="cls-4" points="187.2 194.91 0 208.51 0 187.41 187.2 179.01 187.2 194.91"/><path id="Sock2" class="cls-5" d="M212.5,262.21s-.7,5.3.3,6.3c0,0,0,10-.6,10.3,0,0-2.8,10.9,6.5,9.9,0,0,7-.8,11,.5a24.4,24.4,0,0,0,17.2,4.2s12.4,1.8,7.5-8.3c0,0-5.1-4.2-9.9-4.7,0,0-11.7-6-15.2-11.1a29.36,29.36,0,0,0,.3-5.4Z"/><path id="Sock1" class="cls-5" d="M141,287.61s-.3,7.8,1,10.4c0,0-.1,10.2-2.8,11.4,0,0-5.5,3.9.4,10.2,0,0,12,12,24.9,0,0,0,6-2.2-.9-10.7a84.22,84.22,0,0,1-2.9-21.3Z"/><path id="Trousers" class="cls-6" d="M101.3,166.81s-6.1,27.1,13.6,32.1c0,0,6.2,2.1,8.2,4.9a63.75,63.75,0,0,0,7.3,4.7s-3.2,18.6-.7,21.4c0,0,0,10.4,3.9,25.5,0,0,2,20.3,3.4,21.8,0,0-2,9.1,1.9,11.4a3.59,3.59,0,0,1,2.4,2.6s20.4-.7,21.4-3.2c0,0-.7-25.3-2.2-28.1,0,0-1.7-4.4-.9-15.8,0,0,.5-23-1.9-24.2,0,0,3.2-1.7,3.1-14.8,0,0,1.8-8.2,1.3-9.6,0,0,27.7,2.5,30.1,2.4,0,0,5.9-1,7.2,1.6,0,0,.6,2.3,4.5,1.5,0,0-1.9,4.8,2.6,7,0,0-.3,7-1.5,8.4,0,0,.9,18.3,1.9,20.2,0,0,1.7,17,2.9,20,0,0,.9,4.5-.5,6.6,0,0,18.9,6.9,23.6-2,0,0-1.9-54.4-.5-54.7,0,0,1.9-24.9-10.6-33.4Z"/><path id="keyboardDeck" class="cls-7" d="M112.4,167l26.9,16.3s.1-2.7,1.7-2.1l23.4-8.4-18.4-4-19.9-10.5Z"/><path id="LaptopBody" class="cls-8" d="M112.3,169.21l1.1-9.2,32.7-6.6,75,13.9s4.2,1.7,1.1,4.6c0,0,4.6,1.3-68,14.6,0,0-8.4,2.2-12.4.6Z"/><path id="keys" class="cls-9" d="M141.2,180.51c-.3-.2-11.4-6.8-11.4-6.8s-.3-.8,1-1l16.3-2.5-1.2,9.4Z"/><line class="cls-10" x1="133.4" y1="172.31" x2="142.3" y2="177.71"/><line class="cls-10" x1="137.2" y1="171.71" x2="143.1" y2="175.31"/><line class="cls-10" x1="141.4" y1="171.11" x2="143.9" y2="173.11"/><line class="cls-10" x1="131.6" y1="174.71" x2="146.7" y2="171.41"/><line class="cls-10" x1="134" y1="176.11" x2="146.4" y2="173.01"/><path class="cls-11" d="M96.9,167.41s3.9,3.3,3.7,4.3.7-4,.7-4Z"/><path id="Arm2" class="cls-12" d="M195.9,111l-16.9,4.9-3.3,4.6,1.9,2.4s3.1,9,3.9,9c0,0,.3,10.3.8,10.3h20s-1.1-11.6-1.5-13.4a32.84,32.84,0,0,1-2.3-6C198.5,123,196.9,110.81,195.9,111Z"/><path id="Arm1" class="cls-12" d="M81.3,112.11l27.7,7.7s.7,17.6-9.6,24.5c0,0,12.8,3.5,16.8,6.5a5.33,5.33,0,0,0,3.4,1.1c4.2.1,12.9.3,16.5,1.5a14.47,14.47,0,0,0,5.4.8l10.6-.5-1.4,13.7-4,.9s-6.7,1.2-10.7-2a4.45,4.45,0,0,0-2.6-1c-4-.1-14.2-.3-15.7.6a33.54,33.54,0,0,1-28-1.3s-17-.8-14.4-14.8C75.4,149.91,78.2,111.61,81.3,112.11Z"/><path id="Neck" class="cls-12" d="M134.7,44.51s0,9.9-.4,10.7c0,0-1.8,4.1-4.9,5.6,0,0-8.2,15.2,4.5,19.2,0,0,7.4,12.4,24.3,5.3,0,0,13.4-9.2,10-13.7a95.47,95.47,0,0,0-6-7.6s-.2-5.1.3-5.3Z"/><path id="Shirt" class="cls-11" d="M131.8,58.51s-2.8,2.5-2.7,3.1c0,0-.3,9.7,10.5,17,0,0,5.5,6.7,15.5,3.4.6-.2,6.6-6.6,7.1-12.5,0,0,1.4-3.9,0-5.7,0,0,7.6,1.6,17.7,9.8,0,0,9.8-.3,13.2,13.3,0,0,2.3,2.7,2.5,12.9,0,0,.6,10.3.9,10.9,0,0-2.2,5.9-14,5.6,0,0-2.6.4-3.2,0,0,0-4.1,18-6.4,21.1l-15.8,3.4-6.4,13.7s-9.2,1.7-16.9-.8c0,0-6.7-.2-15.5-.5,0,0-14.7-8-18.8-8.8,0,0,6.6-6,9.6-23.8,0,0-13.3,1.7-30.3-6.8,0,0,6.1-14,6.6-17a36.12,36.12,0,0,1,16.8-23C102.1,73.71,114.8,62.71,131.8,58.51Z"/><path id="LaptopLid" class="cls-13" d="M155.7,139.21l84.1-11.6s.7.4.3.9l-18.2,38.6-78.5,15.6s-3.7-.7-1.8-2.8Z"/><path id="faceShape" class="cls-14" d="M135.4,46.91s-.4,8,3.8,11.5c0,0,7,4.3,6.5,5.1,0,0,7,4.1,10.9.5,0,0,5.2-5.4,6.6-6,0,0,3.2-4.3,2.8-6.6,0,0,2.8,1.1,2.7-2.2,0,0,.3-2.4,1-2.7,0,0,5-7,1-7.9,0,0-2,1.6-2,2.7a7.23,7.23,0,0,0-.9,1.8s.6-7.2.3-7.1a40.39,40.39,0,0,0,1.4-7.7s2.4-4.8-9.3-7.1l-14.8-.8s-6.4.1-10.1,3.6l-.6,12.8s-2.3-4.4-4.4-4.2c0,0-3,1-1.1,7,0,0,2,3.7,2.1,5.1C131.4,44.61,131.6,48.91,135.4,46.91Z"/><path id="Hair" class="cls-15" d="M135.9,41.21v-3.4s1.3.3.7-.9a26.16,26.16,0,0,1,.2-6.1s3.7-1.7,2.6-3.8c0,0-.5-2.1,3.4-3.3,0,0,5.7.6,6.4,0,0,0,3.9-.1,3.5,1,0,0-.2,1.4,5.4,0,0,0,4-.5,4.3.6,0,0,3.1-.1,2.9,1.1,0,0,2.3,1.8,2.8,1.3s-.8,4.3,0,5.7c0,0-.3,2.1.3,3,0,0-.4,3.2-.4,4.4s-.1,2.5-.1,2.9a10.36,10.36,0,0,0-.1,1.6s.7-2,1.2-1.9c0,0-.3-1.5,0-1.7s.4-1.9,1-2.4c0,0,1.3-1.1,1.3-1.6s.7-5.2,0-6.1c0,0,.9-2.3.5-3,0,0-1-5.8-1.6-6.2,0,0,.3-7.7-13.1-12.5,0,0-7.4-3.7-20.1,2.8,0,0-6.2,5.7-5.2,10.7,0,0-.9-.2-.5,9.1,0,0,2.9,2.9,3.3,4.2,0,0,.8,1.9.5,2.4C135,39,135.2,41.41,135.9,41.21Z"/></g></g></g></svg>